# xmcd
#
# Track frame offsets: 
#        150
#        15880
#        32190
#        45580
#        67817
#        80175
#        93575
#        111952
#        126672
#        142367
#        156225
#        176667
#        193565
#
# Disc length: 2777 seconds
#
# Revision: 0
# Processed by: cddbd v1.4PL0 Copyright (c) Steve Scherf et al.
# Submitted via: ExactAudioCopy v0.95a3
#
DISCID=b90ad70d
DTITLE=Omar And The Howlers - Courts Of Lulu
DYEAR=1993
DGENRE=Blues
TTITLE0=Rose Tattoo
TTITLE1=Do It For Daddy
TTITLE2=False Faces
TTITLE3=Pushin' Fire
TTITLE4=Booger Boy
TTITLE5=Jumpin' The Gun
TTITLE6=I've Tried
TTITLE7=Firewalker
TTITLE8=Special Love
TTITLE9=Scared To Speak
TTITLE10=I'm Wild About You
TTITLE11=Moon Bit Fool
TTITLE12=South Congress Blues
EXTD=
EXTT0=
EXTT1=
EXTT2=
EXTT3=
EXTT4=
EXTT5=
EXTT6=
EXTT7=
EXTT8=
EXTT9=
EXTT10=
EXTT11=
EXTT12=
PLAYORDER=
